#!OML:ASF F:\twosubjects\two\Thursday\Session 1\justin.ASF
:FULLY-SPECIFIED
:DEGREES
272
root 9.85525 16.1128 -20.0175 -8.79756 -81.7805 12.7536
lowerback 6.71431 0.0902572 -2.43783
upperback 1.11104 -0.00169725 3.57111
thorax -2.61864 0.0117119 5.08393
lowerneck -25.2505 7.8328 -2.69732
upperneck 18.6792 11.4936 1.13116
head 9.81307 5.23691 2.57438
rclavicle 2.28602e-014 3.18055e-015
rhumerus -33.7403 -25.7543 -59.7415
rradius 30.4077
rwrist -8.10454
rhand -19.1119 12.5983
rfingers 7.12502
rthumb 7.19712 -17.2593
lclavicle 2.28602e-014 3.18055e-015
lhumerus -29.1898 11.3992 73.1777
lradius 27.6239
lwrist -13.4243
lhand -6.83628 46.9208
lfingers 7.12502
lthumb 19.0283 76.01
rfemur -23.6989 -3.23427 24.1525
rtibia 61.1387
rfoot -37.9554 -12.4571
rtoes -4.74466
lfemur -25.2343 1.71181 -21.7434
ltibia 55.6714
lfoot -29.4146 -3.05721
ltoes 5.07471
273
root 9.84885 16.1167 -20.0177 -13.9303 -81.5613 17.7873
lowerback 6.59233 0.107036 -3.30822
upperback 1.27059 -0.0425526 3.33017
thorax -2.3799 -0.00872521 5.32931
lowerneck -25.7082 7.96529 -2.19125
upperneck 19.1974 11.596 0.846188
head 10.1274 5.25698 2.4608
rclavicle -2.66371e-014 -1.27222e-014
rhumerus -33.5929 -26.2532 -59.4832
rradius 30.3834
rwrist -7.57373
rhand -19.2297 12.7198
rfingers 7.12502
rthumb 7.08343 -17.1417
lclavicle -2.66371e-014 -1.27222e-014
lhumerus -29.092 11.2638 73.1301
lradius 27.8935
lwrist -13.2842
lhand -6.46164 46.2483
lfingers 7.12502
lthumb 19.3885 75.3017
rfemur -23.5267 -3.47383 23.2616
rtibia 61.1122
rfoot -37.901 -12.2619
rtoes -4.47759
lfemur -24.8469 1.65092 -22.5955
ltibia 55.4163
lfoot -29.4689 -2.81907
ltoes 4.849
274
root 9.84394 16.1272 -20.0193 -15.7163 -81.5008 19.5098
lowerback 6.38283 0.164638 -3.44066
upperback 1.42994 0.0239132 3.03127
thorax -2.10551 0.0159952 5.08202
lowerneck -25.1829 7.79015 -2.46043
upperneck 18.6717 11.3315 1.19012
head 9.81302 5.18809 2.53275
rclavicle -1.33186e-014 -1.11319e-014
rhumerus -33.6299 -26.985 -59.3795
rradius 30.3361
rwrist -7.14038
rhand -18.8677 12.6049
rfingers 7.12502
rthumb 7.43289 -17.2445
lclavicle -1.33186e-014 -1.11319e-014
lhumerus -28.9258 10.7131 72.9981
lradius 28.2348
lwrist -13.0193
lhand -5.93096 46.0268
lfingers 7.12502
lthumb 19.8987 75.028
rfemur -23.3694 -3.56626 22.9718
rtibia 60.9552
rfoot -37.7983 -12.2287
rtoes -4.74636
lfemur -24.5589 1.63669 -22.8744
ltibia 55.1311
lfoot -29.4407 -2.72934
ltoes 4.40501
275
root 9.84496 16.1432 -20.0147 -9.00865 -81.7904 12.6919
lowerback 6.31429 0.193005 -2.21256
upperback 1.4465 0.140159 3.16505
thorax -2.06181 0.0642867 4.51161
lowerneck -24.7047 7.65866 -2.42581
upperneck 18.2867 11.1247 1.13141
head 9.60537 5.10657 2.44031
rclavicle -1.96797e-014 -1.59028e-015
rhumerus -33.9518 -26.9335 -59.3079
rradius 30.5378
rwrist -7.26756
rhand -18.911 12.3869
rfingers 7.12502
rthumb 7.39101 -17.464
lclavicle -1.96797e-014 -1.59028e-015
lhumerus -29.1377 10.15 73.0704
lradius 28.7721
lwrist -12.4955
lhand -5.87294 45.7555
lfingers 7.12502
lthumb 19.9545 74.751
rfemur -23.1417 -3.38782 24.1438
rtibia 60.6199
rfoot -37.7668 -12.2859
rtoes -4.40206
lfemur -24.4186 2.02635 -21.6835
ltibia 54.8385
lfoot -29.3415 -3.215
ltoes 4.54883
276
root 9.84156 16.161 -20.0068 -7.44616 -81.778 11.0254
lowerback 6.2793 0.130793 -1.9007
upperback 1.417 0.077915 3.21143
thorax -2.06667 0.0316859 4.38746
lowerneck -24.389 7.6862 -2.24498
upperneck 18.2205 11.1637 0.816539
head 9.55945 5.10254 2.29556
rclavicle -1.78906e-014 4.21423e-014
rhumerus -34.0213 -26.3591 -59.2432
rradius 30.5026
rwrist -7.72906
rhand -19.2925 12.5474
rfingers 7.12502
rthumb 7.02276 -17.3161
lclavicle -1.78906e-014 4.21423e-014
lhumerus -29.554 9.6864 73.2696
lradius 29.2678
lwrist -11.6678
lhand -5.87261 45.1768
lfingers 7.12502
lthumb 19.9548 74.1722
rfemur -22.8525 -3.54159 24.3539
rtibia 60.218
rfoot -37.6201 -12.2643
rtoes -4.40196
lfemur -24.1643 2.49154 -21.4444
ltibia 54.4323
lfoot -29.2096 -3.49569
ltoes 4.01107
277
root 9.82587 16.1903 -20.0045 -11.9603 -81.6702 15.6246
lowerback 5.95426 0.0319394 -2.65206
upperback 1.40366 -0.0953624 3.04578
thorax -1.88186 -0.0521364 4.65312
lowerneck -23.801 7.76366 -2.21946
upperneck 17.8254 11.2946 0.543431
head 9.337 5.15135 2.17623
rclavicle 3.95581e-014 1.59028e-015
rhumerus -33.7768 -25.9867 -59.1751
rradius 30.1577
rwrist -7.98291
rhand -18.9781 12.7703
rfingers 7.12502
rthumb 7.32628 -17.0828
lclavicle 3.95581e-014 1.59028e-015
lhumerus -29.8297 9.45003 73.383
lradius 29.4519
lwrist -10.8512
lhand -5.43239 44.3459
lfingers 7.12502
lthumb 20.3779 73.2967
rfemur -22.6259 -3.665 23.5321
rtibia 59.779
rfoot -37.4704 -12.0078
rtoes -4.16225
lfemur -23.8898 2.53258 -22.2481
ltibia 53.8749
lfoot -28.9856 -3.27927
ltoes 3.49844
278
root 9.80703 16.2274 -20.0065 -12.1678 -81.8721 15.9514
lowerback 5.55841 0.0826323 -2.78019
upperback 1.34572 -0.0263128 3.05032
thorax -1.72734 -0.0181508 4.72323
lowerneck -23.1985 7.66442 -2.35766
upperneck 17.4422 11.2016 0.418873
head 9.10253 5.10405 2.10068
rclavicle -6.95746e-015 1.66979e-014
rhumerus -33.9278 -26.17 -58.8233
rradius 29.9478
rwrist -7.67668
rhand -18.5218 12.4867
rfingers 7.12502
rthumb 7.76669 -17.3507
lclavicle -6.95746e-015 1.66979e-014
lhumerus -30.0245 9.17318 73.5364
lradius 29.586
lwrist -10.2452
lhand -4.8274 43.7293
lfingers 7.12502
lthumb 20.9592 72.6169
rfemur -22.3682 -3.23041 23.5161
rtibia 59.2869
rfoot -37.5138 -11.7024
rtoes -2.76245
lfemur -23.5858 2.32947 -22.2102
ltibia 53.2324
lfoot -28.7828 -3.32265
ltoes 4.51545
279
root 9.79663 16.2629 -20.0004 -13.6704 -81.8953 17.4351
lowerback 5.45807 0.171618 -2.83682
upperback 1.27285 0.0920829 2.84229
thorax -1.75835 0.0450849 4.5294
lowerneck -23.3256 7.56637 -2.74072
upperneck 17.9815 11.0687 1.08
head 9.24814 5.07822 2.38666
rclavicle -1.5704e-014 1.51076e-014
rhumerus -34.3058 -26.6689 -58.5357
rradius 29.7546
rwrist -7.43221
rhand -18.7063 12.1256
rfingers 7.12502
rthumb 7.5886 -17.7183
lclavicle -1.5704e-014 1.51076e-014
lhumerus -30.2867 8.79323 73.5667
lradius 29.9081
lwrist -9.85983
lhand -4.39652 43.3583
lfingers 7.12502
lthumb 21.3732 72.1995
rfemur -22.0038 -3.1219 23.2701
rtibia 58.7744
rfoot -37.3522 -11.7906
rtoes -2.8034
lfemur -23.094 1.99327 -22.4297
ltibia 52.5454
lfoot -28.5572 -3.27646
ltoes 5.20391
280
root 9.79667 16.2906 -19.9942 -17.0976 -81.5641 20.8456
lowerback 5.43918 0.19921 -3.23915
upperback 1.23007 0.106554 2.54246
thorax -1.79323 0.0575958 4.44421
lowerneck -23.7907 7.56702 -3.2761
upperneck 18.7722 11.0548 2.09721
head 9.50548 5.13117 2.86055
rclavicle -1.39149e-014 1.98785e-014
rhumerus -34.6594 -27.3262 -58.2773
rradius 29.6632
rwrist -7.3302
rhand -18.8137 11.9641
rfingers 7.12502
rthumb 7.48502 -17.8835
lclavicle -1.39149e-014 1.98785e-014
lhumerus -30.3843 8.496 73.6818
lradius 30.1593
lwrist -9.47603
lhand -3.86889 43.1598
lfingers 7.12502
lthumb 21.8799 71.9427
rfemur -21.7006 -3.52205 22.6266
rtibia 58.2383
rfoot -36.8984 -12.2349
rtoes -4.73035
lfemur -22.7117 1.90417 -23.147
ltibia 51.8763
lfoot -28.2313 -2.76856
ltoes 3.00044
281
root 9.79715 16.3179 -19.9966 -16.4004 -81.3842 20.3713
lowerback 5.16205 0.214184 -3.26424
upperback 1.07717 0.13522 2.52135
thorax -1.79893 0.0764482 4.4339
lowerneck -23.5556 7.53177 -3.07251
upperneck 18.7944 10.9984 1.80788
head 9.50653 5.08348 2.71475
rclavicle 4.17448e-015 3.18055e-015
rhumerus -35.1314 -27.6813 -57.9337
rradius 29.7506
rwrist -7.54537
rhand -18.5427 11.8496
rfingers 7.12502
rthumb 7.74659 -17.9885
lclavicle 4.17448e-015 3.18055e-015
lhumerus -30.5601 8.12264 73.9962
lradius 30.4362
lwrist -8.95829
lhand -3.06853 43.2055
lfingers 7.12502
lthumb 22.6482 71.8966
rfemur -21.6661 -3.56448 22.6521
rtibia 57.6557
rfoot -36.5806 -12.2314
rtoes -4.72405
lfemur -22.7352 2.23715 -23.1693
ltibia 51.2299
lfoot -27.8524 -2.6919
ltoes 0.656688
